<?xml version="1.0" encoding="UTF-8" standalone="no"?>
<svg width="440px" height="322px" viewBox="0 0 440 322" version="1.1" xmlns="http://www.w3.org/2000/svg" xmlns:xlink="http://www.w3.org/1999/xlink">
    <!-- Generator: Sketch 3.8.3 (29802) - http://www.bohemiancoding.com/sketch -->
    <title>alesha_logo_white</title>
    <desc>Created with Sketch.</desc>
    <defs></defs>
    <g id="new" stroke="none" stroke-width="1" fill="none" fill-rule="evenodd">
        <g id="Page-1" fill="#FFFFFF">
            <path d="M133.873,266.7061 C133.549,273.2561 132.74,279.7531 129.988,285.2381 L142.454,285.2381 L142.454,263.0851 L136.787,263.0851 C134.952,263.0851 133.981,264.3621 133.873,266.7061 L133.873,266.7061 Z M112.913,262.6051 C107.625,262.6051 105.79,265.3751 105.79,274.1611 C105.79,282.9481 107.625,285.7701 112.913,285.7701 C118.256,285.7701 120.09,282.9481 120.09,274.1611 C120.09,265.3751 118.256,262.6051 112.913,262.6051 L112.913,262.6051 Z M297.429,277.6761 L297.429,280.5521 C297.429,283.7471 298.724,285.3451 301.26,285.3971 C304.012,285.5051 307.735,283.4281 310.271,280.6051 L310.271,273.0971 L300.828,273.2561 C298.508,273.3101 297.429,274.8531 297.429,277.6761 L297.429,277.6761 Z M196.957,274.5881 L190.536,274.5881 L190.536,285.5051 C192.101,285.5581 194.421,285.5581 197.281,285.5581 C201.868,285.5581 203.541,284.5461 203.541,280.3391 C203.541,275.9191 201.814,274.5881 196.957,274.5881 L196.957,274.5881 Z M254.711,277.6761 L254.711,280.5521 C254.711,283.7471 256.006,285.3451 258.542,285.3971 C261.295,285.5051 265.018,283.4281 267.555,280.6051 L267.555,273.0971 L258.11,273.2561 C255.79,273.3101 254.711,274.8531 254.711,277.6761 L254.711,277.6761 Z M202.894,268.0371 C202.894,263.8301 201.113,262.8721 196.31,262.8721 C193.881,262.8721 191.939,262.8721 190.536,262.9251 L190.536,272.9901 L196.957,272.9901 C201.329,272.9361 202.894,272.0311 202.894,268.0371 L202.894,268.0371 Z M77.083,186.9141 C76.617,184.1181 76.15,181.0901 75.917,178.2951 L73.352,178.2951 C73.235,181.0901 72.885,184.1181 72.419,186.9141 L69.154,206.9471 L80.348,206.9471 L77.083,186.9141 Z M369.741,178.2951 L367.176,178.2951 C367.059,181.0901 366.709,184.1181 366.242,186.9141 L362.977,206.9471 L374.172,206.9471 L370.907,186.9141 C370.44,184.1181 369.974,181.0901 369.741,178.2951 L369.741,178.2951 Z M379.886,241.8911 L376.853,223.1381 L360.296,223.1381 L357.264,241.8911 L334.06,241.8911 L350.734,167.3461 C351.55,163.7341 354.582,161.5221 358.313,161.5221 L378.486,161.5221 C382.218,161.5221 385.366,163.7341 386.416,167.3461 L402.74,241.8911 L379.886,241.8911 Z M383.261,286.9951 L381.102,286.9951 L381.102,274.1611 L368.259,274.1611 L368.259,286.9951 L366.046,286.9951 L366.046,261.3271 L368.259,261.3271 L368.259,272.4571 L381.102,272.4571 L381.102,261.3271 L383.261,261.3271 L383.261,286.9951 Z M358.266,286.9951 L356.215,286.9951 L356.215,267.2381 C356.215,266.2271 356.215,265.2151 356.269,264.2031 L356.215,264.2031 C355.837,265.0021 355.298,265.9071 354.866,266.7061 L342.994,286.9951 L340.565,286.9951 L340.565,261.3271 L342.616,261.3271 L342.616,284.1731 L342.67,284.1731 C343.102,283.2151 343.695,282.2561 344.127,281.5111 L355.837,261.3271 L358.266,261.3271 L358.266,286.9951 Z M325.355,287.3681 C323.035,287.3681 320.014,287.2091 317.692,286.7291 L317.908,285.1321 C319.365,285.2381 322.388,285.5051 325.193,285.5051 C330.158,285.5051 331.669,284.0141 331.669,280.3391 C331.669,275.9191 329.996,274.7471 325.302,274.6941 L320.822,274.6411 L320.822,273.0431 L325.302,272.9901 C329.78,272.9361 331.13,271.9251 331.13,267.9841 C331.13,263.6701 329.457,262.8721 324.114,262.8721 C322.01,262.8721 319.743,262.9781 318.394,263.1911 L318.179,261.5941 C320.391,261.1141 322.496,261.0081 324.276,261.0081 C330.968,261.0081 333.288,262.3931 333.288,267.7181 C333.288,271.3391 332.263,273.3621 328.863,273.7351 L328.863,273.8421 C332.533,274.2151 333.99,276.2911 333.99,280.6581 C333.99,285.3971 331.669,287.3681 325.355,287.3681 L325.355,287.3681 Z M312.431,286.9951 L310.758,286.9951 L310.38,282.3621 C308.653,284.5461 304.875,287.3681 300.936,287.3681 C297.375,287.3681 295.162,284.9721 295.162,280.7121 L295.162,277.5171 C295.162,273.6291 297.104,271.3931 300.504,271.3931 L310.271,271.3931 L310.271,268.1431 C310.218,264.8951 309.246,262.6051 305.685,262.6051 C302.933,262.6051 299.425,262.9781 296.241,263.4041 L296.025,261.8071 C298.886,261.3271 302.231,260.6881 306.062,260.6881 C310.109,260.6881 312.431,262.7121 312.431,268.1431 L312.431,286.9951 Z M291.326,263.1381 L281.883,263.1381 C279.886,263.1381 278.969,264.3101 278.969,266.9191 L278.969,286.9951 L276.756,286.9951 L276.756,266.4931 C276.756,263.1911 278.321,261.3271 281.073,261.3271 C284.527,261.3271 287.98,261.3271 291.38,261.5401 L291.326,263.1381 Z M269.713,286.9951 L268.04,286.9951 L267.662,282.3621 C265.935,284.5461 262.158,287.3681 258.219,287.3681 C254.657,287.3681 252.444,284.9721 252.444,280.7121 L252.444,277.5171 C252.444,273.6291 254.387,271.3931 257.787,271.3931 L267.555,271.3931 L267.555,268.1431 C267.5,264.8951 266.529,262.6051 262.968,262.6051 C260.215,262.6051 256.708,262.9781 253.523,263.4041 L253.308,261.8071 C256.168,261.3271 259.514,260.6881 263.345,260.6881 C267.393,260.6881 269.713,262.7121 269.713,268.1431 L269.713,286.9951 Z M244.658,286.9951 L243.687,263.0851 L242.932,263.0851 L236.294,283.8011 C236.133,284.2791 235.862,284.5461 235.322,284.5461 L233.057,284.5461 C232.57,284.5461 232.301,284.2791 232.139,283.8011 L225.502,263.0851 L224.691,263.0851 L223.774,286.9951 L221.724,286.9951 L222.641,262.2861 C222.641,261.7001 223.019,261.3271 223.666,261.3271 L226.311,261.3271 C226.797,261.3271 227.066,261.5941 227.228,262.0731 L232.679,279.3801 C233.057,280.6051 233.488,281.7761 233.811,282.9481 L234.567,282.9481 C234.999,281.7241 235.377,280.5521 235.701,279.3801 L241.205,262.0731 C241.367,261.5941 241.69,261.3271 242.176,261.3271 L244.82,261.3271 C245.36,261.3271 245.737,261.7001 245.737,262.2861 L246.709,286.9951 L244.658,286.9951 Z M197.551,287.3151 C193.396,287.3151 191.291,287.2621 188.431,286.9951 L188.431,261.3811 C190.967,261.1141 192.748,261.0601 196.364,261.0601 C202.731,261.0601 205.052,262.4991 205.052,267.9311 C205.052,271.5521 203.757,273.4161 200.519,273.7351 L200.519,273.8421 C204.458,274.2151 205.808,276.5581 205.808,280.6581 C205.808,285.8771 203.541,287.3151 197.551,287.3151 L197.551,287.3151 Z M182.225,224.7681 L182.225,178.6431 C182.225,168.0451 188.872,161.0561 197.15,161.0561 C209.161,161.0561 223.853,161.0561 233.766,162.4531 L232.482,178.5271 L209.161,178.5271 C207.179,178.5271 204.73,180.2741 204.73,183.4191 L204.73,192.8531 L229.451,192.8531 L229.451,208.1121 L204.73,208.1121 L204.73,219.8761 C204.73,223.2541 207.179,225.0011 209.161,225.0011 L232.482,225.0011 L233.766,240.9591 C223.853,242.3561 209.161,242.3561 197.15,242.3561 C188.755,242.3561 182.225,235.3681 182.225,224.7681 L182.225,224.7681 Z M174.029,241.8911 L151.291,241.8911 L151.291,176.6641 L148.493,176.6641 C145.461,176.6641 143.711,178.6431 143.362,182.4871 C142.895,198.9101 141.496,214.1691 139.164,223.4871 C134.966,240.4921 124.122,244.8031 110.945,242.3561 L109.312,225.0011 C113.511,224.3031 116.892,223.1381 118.641,217.5471 C120.973,210.2091 121.79,198.7941 122.489,180.7401 C123.072,168.0451 129.019,161.5221 139.98,161.5221 L174.029,161.5221 L174.029,241.8911 Z M170.908,286.9951 L168.857,286.9951 L168.857,267.2381 C168.857,266.2271 168.857,265.2151 168.911,264.2031 L168.857,264.2031 C168.479,265.0021 167.94,265.9071 167.508,266.7061 L155.636,286.9951 L153.208,286.9951 L153.208,261.3271 L155.259,261.3271 L155.259,284.1731 L155.312,284.1731 C155.744,283.2151 156.338,282.2561 156.769,281.5111 L168.479,261.3271 L170.908,261.3271 L170.908,286.9951 Z M147.202,294.7181 L145.691,294.7181 L145.421,286.9951 L127.775,286.9951 L127.505,294.7181 L125.994,294.7181 L125.994,285.2381 L127.937,285.2381 C130.689,279.6461 131.553,273.0431 131.822,266.4931 C131.93,263.1381 133.496,261.3271 136.409,261.3271 L144.612,261.3271 L144.612,285.2381 L147.202,285.2381 L147.202,294.7181 Z M112.913,287.6351 C106.006,287.6351 103.47,284.0661 103.47,274.1611 C103.47,264.3101 106.006,260.6881 112.913,260.6881 C119.874,260.6881 122.357,264.3101 122.357,274.1611 C122.357,284.0661 119.874,287.6351 112.913,287.6351 L112.913,287.6351 Z M97.547,286.9951 L90.532,274.4801 L89.831,274.4801 L82.869,286.9951 L80.333,286.9951 L87.888,273.6821 L80.873,261.3271 L83.355,261.3271 L89.723,272.7241 L90.64,272.7241 L97.008,261.3271 L99.49,261.3271 L92.529,273.6821 L100.03,286.9951 L97.547,286.9951 Z M70.466,287.6351 C63.396,287.6351 60.752,284.0661 60.752,274.1611 C60.752,264.2561 63.396,260.6881 70.466,260.6881 C72.139,260.6881 74.783,260.9011 76.726,261.7001 L76.401,263.1381 C74.675,262.7651 72.247,262.6051 70.843,262.6051 C65.123,262.6051 63.073,265.2151 63.073,274.1611 C63.073,283.1081 65.123,285.7181 70.843,285.7181 C72.031,285.7181 74.891,285.6111 76.887,285.1321 L77.157,286.6231 C75.16,287.2621 72.732,287.6351 70.466,287.6351 L70.466,287.6351 Z M56.91,167.3461 C57.727,163.7341 60.758,161.5221 64.49,161.5221 L84.663,161.5221 C88.394,161.5221 91.542,163.7341 92.592,167.3461 L108.917,241.8911 L86.062,241.8911 L83.03,223.1381 L66.472,223.1381 L63.44,241.8911 L40.235,241.8911 L56.91,167.3461 Z M192.953,141.1391 C192.953,138.3431 194.235,136.8291 196.567,136.8291 L203.914,136.8291 C206.479,136.8291 207.528,138.3431 207.528,141.1391 L207.528,148.3601 C207.528,151.1551 206.479,152.4361 203.914,152.4361 L196.567,152.4361 C194.235,152.4361 192.953,151.1551 192.953,148.3601 L192.953,141.1391 Z M231.493,121.1391 C231.493,118.3431 232.775,116.8291 235.225,116.8291 L242.454,116.8291 C245.019,116.8291 245.836,118.3431 245.836,121.1391 L245.836,128.3601 C245.836,131.1551 245.019,132.4361 242.454,132.4361 L235.225,132.4361 C232.775,132.4361 231.493,131.1551 231.493,128.3601 L231.493,121.1391 Z M275.039,226.7481 L275.039,161.5221 L296.961,161.5221 L296.961,226.7481 L308.271,226.7481 L308.271,161.5221 L330.427,161.5221 L330.427,241.8911 L241.572,241.8911 L241.572,161.5221 L263.611,161.5221 L263.611,226.7481 L275.039,226.7481 Z M220,0.0001 C98.498,0.0001 0,98.4891 0,219.9811 C0,256.8051 9.058,291.5071 25.054,322.0001 L414.958,322.0001 C430.951,291.5081 440,256.8021 440,219.9811 C440,98.4891 341.503,0.0001 220,0.0001 L220,0.0001 Z" id="alesha_logo_white"></path>
        </g>
    </g>
</svg>