<?xml version="1.0" encoding="UTF-8" standalone="no"?>
<svg width="72px" height="56px" viewBox="0 0 72 56" version="1.1" xmlns="http://www.w3.org/2000/svg" xmlns:xlink="http://www.w3.org/1999/xlink">
    <!-- Generator: Sketch 3.8.3 (29802) - http://www.bohemiancoding.com/sketch -->
    <title>socialFb</title>
    <desc>Created with Sketch.</desc>
    <defs></defs>
    <g id="new" stroke="none" stroke-width="1" fill="none" fill-rule="evenodd">
        <g id="fb" transform="translate(24.000000, 16.000000)" fill="#FFFFFF">
            <path d="M12,0 C5.37258883,0 0,5.37378168 0,12.0004873 C0,18.6281676 5.37258883,24 12,24 C18.6274112,24 24,18.6281676 24,12.0004873 C24,5.37378168 18.6269239,0 12,0 L12,0 Z M15.175797,11.9502924 L13.0979086,11.9502924 L13.0979086,19.3611111 L10.0181117,19.3611111 L10.0181117,11.9502924 L8.55325888,11.9502924 L8.55325888,9.33382066 L10.0181117,9.33382066 L10.0181117,7.63840156 C10.0181117,6.42495127 10.5941117,4.53070175 13.1266599,4.53070175 L15.407269,4.53947368 L15.407269,7.08089669 L13.7513909,7.08089669 C13.480934,7.08089669 13.0983959,7.21588694 13.0983959,7.79288499 L13.0983959,9.33430799 L15.4462538,9.33430799 L15.175797,11.9502924 L15.175797,11.9502924 Z" id="Shape"></path>
        </g>
    </g>
</svg>