<?xml version="1.0" encoding="utf-8"?>
<!-- Generator: Adobe Illustrator 19.1.0, SVG Export Plug-In . SVG Version: 6.00 Build 0)  -->
<svg version="1.1" baseProfile="tiny" id="Layer_1" xmlns="http://www.w3.org/2000/svg" xmlns:xlink="http://www.w3.org/1999/xlink"
	 x="0px" y="0px" viewBox="-240 332 130 130" xml:space="preserve">
<g>
	<path fill="#000000" d="M-175,340.8c-31,0-56.2,25.1-56.2,56.2c0,31.1,25.1,56.2,56.2,56.2s56.2-25.1,56.2-56.2
		C-118.8,365.9-144,340.8-175,340.8z M-172.8,383.1c0,5.3-3,7.8-6,10.2c-0.9,0.9-2,1.9-2,3.5s1.1,2.4,1.9,3.1l2.6,2
		c3.2,2.6,6,5.1,6,10c0,6.7-6.5,13.6-18.9,13.6c-10.4,0-15.4-5-15.4-10.3c0-2.6,1.3-6.3,5.5-8.7c4.5-2.7,10.5-3.1,13.7-3.3
		c-1-1.3-2.1-2.7-2.1-4.9c0-1.2,0.4-1.9,0.7-2.8c-0.8,0.1-1.6,0.1-2.3,0.1c-7.6,0-11.9-5.7-11.9-11.3c0-3.3,1.5-7,4.6-9.6
		c4.1-3.4,9-4,12.9-4h14.8l-4.6,2.6l-4.5,0C-176.2,374.7-172.8,377.6-172.8,383.1z M-141.4,384.1h-10.9V395h-2.7v-10.9h-10.9v-2.7
		h10.9v-10.9h2.7v10.9h10.9V384.1z"/>
	<path fill="#000000" d="M-188.2,373.1c-1.9,0-3.9,0.9-5,2.4c-1.2,1.5-1.6,3.4-1.6,5.3c0,4.8,2.8,12.8,9,12.8c1.8,0,3.7-0.9,4.9-2
		c1.6-1.6,1.8-4,1.8-5.3C-179.1,381.2-182.2,373.1-188.2,373.1z"/>
	<path fill="#000000" d="M-184.6,405.1c-0.6,0-4.5,0.1-7.5,1.1c-1.6,0.6-6.2,2.3-6.2,7.4s5,8.7,12.6,8.7c6.9,0,10.5-3.3,10.5-7.7
		c0-3.6-2.3-5.6-7.8-9.5C-183.6,405.1-183.9,405.1-184.6,405.1z"/>
</g>
<g>
	<path fill="#FFFFFF" d="M-177.9,373.2c1.6,1.4,5.1,4.2,5.1,9.7c0,5.3-3,7.8-6,10.2c-0.9,0.9-2,1.9-2,3.5s1.1,2.4,1.9,3.1l2.6,2
		c3.2,2.6,6,5.1,6,10c0,6.7-6.5,13.6-18.9,13.6c-10.4,0-15.4-5-15.4-10.3c0-2.6,1.3-6.3,5.5-8.7c4.5-2.7,10.5-3.1,13.7-3.3
		c-1-1.3-2.1-2.7-2.1-4.9c0-1.2,0.4-1.9,0.7-2.8c-0.8,0.1-1.6,0.1-2.3,0.1c-7.6,0-11.9-5.7-11.9-11.3c0-3.3,1.5-7,4.6-9.6
		c4.1-3.4,9-4,12.9-4h14.8l-4.6,2.6C-173.4,373.1-177.9,373.2-177.9,373.2z M-183,405c-0.6-0.1-0.9-0.1-1.6-0.1
		c-0.6,0-4.5,0.1-7.5,1.1c-1.6,0.6-6.2,2.3-6.2,7.4c0,5.1,5,8.7,12.6,8.7c6.9,0,10.5-3.3,10.5-7.7C-175.2,410.8-177.5,408.9-183,405
		 M-180.9,391.4c1.6-1.6,1.8-4,1.8-5.3c0-5.2-3.1-13.2-9-13.2c-1.9,0-3.9,0.9-5,2.4c-1.2,1.5-1.6,3.4-1.6,5.3c0,4.8,2.8,12.8,9,12.8
		C-184,393.4-182,392.5-180.9,391.4"/>
	<path fill="#FFFFFF" d="M-141.4,381.2h-10.9v-10.9h-2.7v10.9h-10.9v2.7h10.9v10.9h2.7v-10.9h10.9V381.2z"/>
</g>
</svg>
