<?xml version="1.0" encoding="UTF-8" standalone="no"?>
<svg width="72px" height="42px" viewBox="0 0 72 42" version="1.1" xmlns="http://www.w3.org/2000/svg" xmlns:xlink="http://www.w3.org/1999/xlink">
    <!-- Generator: Sketch 3.8.3 (29802) - http://www.bohemiancoding.com/sketch -->
    <title>socialFb</title>
    <desc>Created with Sketch.</desc>
    <defs></defs>
    <g id="new" stroke="none" stroke-width="1" fill="none" fill-rule="evenodd">
        <path d="M36,34 C43.1797021,34 49,28.1797021 49,21 C49,13.8202979 43.1797021,8 36,8 C28.8202979,8 23,13.8202979 23,21 C23,28.1797021 28.8202979,34 36,34 L36,34 Z M36,32 C42.0751325,32 47,27.0751325 47,21 C47,14.9248675 42.0751325,10 36,10 C29.9248675,10 25,14.9248675 25,21 C25,27.0751325 29.9248675,32 36,32 L36,32 Z M36.6546944,28 L36.6546944,20.9991804 L38.7255649,20.9991804 L39,18.5866591 L36.6546944,18.5866591 L36.6582127,17.379169 C36.6582127,16.7499463 36.7222769,16.4127944 37.6907161,16.4127944 L38.98534,16.4127944 L38.98534,14 L36.9141762,14 C34.4263754,14 33.5507341,15.1703324 33.5507341,17.1384633 L33.5507341,18.5869324 L32,18.5869324 L32,20.9994536 L33.5507341,20.9994536 L33.5507341,28 L36.6546944,28 L36.6546944,28 Z" id="Oval-1" fill="#FFFFFF"></path>
    </g>
</svg>