<?xml version="1.0" encoding="UTF-8" standalone="no"?>
<svg width="72px" height="56px" viewBox="0 0 72 56" version="1.1" xmlns="http://www.w3.org/2000/svg" xmlns:xlink="http://www.w3.org/1999/xlink">
    <!-- Generator: Sketch 3.8.3 (29802) - http://www.bohemiancoding.com/sketch -->
    <title>socialFb_hover</title>
    <desc>Created with Sketch.</desc>
    <defs></defs>
    <g id="new" stroke="none" stroke-width="1" fill="none" fill-rule="evenodd">
        <g id="fb-copy" transform="translate(16.000000, 8.000000)">
            <g id="row-copy-4" fill-opacity="0.26" fill="#000000">
                <circle id="Oval" cx="20" cy="20" r="20"></circle>
            </g>
            <path d="M20,8 C13.3725888,8 8,13.3737817 8,20.0004873 C8,26.6281676 13.3725888,32 20,32 C26.6274112,32 32,26.6281676 32,20.0004873 C32,13.3737817 26.6269239,8 20,8 L20,8 Z M23.175797,19.9502924 L21.0979086,19.9502924 L21.0979086,27.3611111 L18.0181117,27.3611111 L18.0181117,19.9502924 L16.5532589,19.9502924 L16.5532589,17.3338207 L18.0181117,17.3338207 L18.0181117,15.6384016 C18.0181117,14.4249513 18.5941117,12.5307018 21.1266599,12.5307018 L23.407269,12.5394737 L23.407269,15.0808967 L21.7513909,15.0808967 C21.480934,15.0808967 21.0983959,15.2158869 21.0983959,15.792885 L21.0983959,17.334308 L23.4462538,17.334308 L23.175797,19.9502924 L23.175797,19.9502924 Z" id="Shape" fill="#FFFFFF"></path>
        </g>
    </g>
</svg>