<?xml version="1.0" encoding="UTF-8" standalone="no"?>
<svg width="72px" height="42px" viewBox="0 0 72 42" version="1.1" xmlns="http://www.w3.org/2000/svg" xmlns:xlink="http://www.w3.org/1999/xlink">
    <!-- Generator: Sketch 3.8.3 (29802) - http://www.bohemiancoding.com/sketch -->
    <title>socialTw</title>
    <desc>Created with Sketch.</desc>
    <defs></defs>
    <g id="new" stroke="none" stroke-width="1" fill="none" fill-rule="evenodd">
        <path d="M36,34 C43.1797021,34 49,28.1797021 49,21 C49,13.8202979 43.1797021,8 36,8 C28.8202979,8 23,13.8202979 23,21 C23,28.1797021 28.8202979,34 36,34 L36,34 Z M36,32 C42.0751325,32 47,27.0751325 47,21 C47,14.9248675 42.0751325,10 36,10 C29.9248675,10 25,14.9248675 25,21 C25,27.0751325 29.9248675,32 36,32 L36,32 Z M35.7977989,18.1921879 L35.8281462,18.7112218 L35.3223575,18.6476666 C33.481287,18.4040384 31.8728793,17.5778213 30.5072501,16.1902002 L29.8396091,15.501686 L29.667641,16.0101272 C29.3034732,17.1435277 29.5361359,18.3404833 30.2948188,19.1455153 C30.6994497,19.5904015 30.6084078,19.6539567 29.9104195,19.3891435 C29.667641,19.3044032 29.4552097,19.2408481 29.4349782,19.2726257 C29.3641678,19.3467734 29.6069463,20.3106934 29.799146,20.6920244 C30.0621561,21.2216507 30.598292,21.7406845 31.1850067,22.0478679 L31.6806796,22.291496 L31.0939648,22.3020885 C30.5274816,22.3020885 30.5072501,22.312681 30.5679447,22.5351241 C30.7702602,23.2236384 31.5694061,23.9545228 32.4595941,24.2722986 L33.0867719,24.4947417 L32.5405202,24.8337025 C31.7312585,25.3209588 30.7803759,25.5963646 29.8294933,25.6175496 C29.3742836,25.6281421 29,25.6705122 29,25.7022898 C29,25.808215 30.2341242,26.4013966 30.952344,26.6344322 C33.1070035,27.3229465 35.6662938,27.0263557 37.5882905,25.8505852 C38.9539197,25.0137755 40.319549,23.3507487 40.9568427,21.7406845 C41.3007789,20.8826898 41.6447152,19.3149958 41.6447152,18.5629263 C41.6447152,18.0756701 41.6750625,18.012115 42.2415457,17.4295259 C42.5753662,17.090565 42.8889551,16.7198266 42.9496498,16.6139013 C43.0508075,16.4126433 43.0406918,16.4126433 42.5247874,16.5927162 C41.6649467,16.9104921 41.5435574,16.868122 41.9684199,16.3914582 C42.2820088,16.0524973 42.6562924,15.4381308 42.6562924,15.2580578 C42.6562924,15.2262802 42.5045558,15.2792429 42.3325877,15.3745756 C42.1505037,15.4805009 41.7458729,15.6393888 41.4423997,15.7347215 L40.896148,15.9147945 L40.4004752,15.5652411 C40.1273493,15.3745756 39.74295,15.1627251 39.5406345,15.0991699 C39.0247302,14.9508745 38.2357,14.9720596 37.7703744,15.14154 C36.5059029,15.6182037 35.7067569,16.8469369 35.7977989,18.1921879 C35.7977989,18.1921879 35.7067569,16.8469369 35.7977989,18.1921879 L35.7977989,18.1921879 Z" id="Oval-1" fill="#FFFFFF"></path>
    </g>
</svg>