<?xml version="1.0" encoding="UTF-8" standalone="no"?>
<svg width="72px" height="42px" viewBox="0 0 72 42" version="1.1" xmlns="http://www.w3.org/2000/svg" xmlns:xlink="http://www.w3.org/1999/xlink">
    <!-- Generator: Sketch 3.8.3 (29802) - http://www.bohemiancoding.com/sketch -->
    <title>socialFb_hover</title>
    <desc>Created with Sketch.</desc>
    <defs></defs>
    <g id="new" stroke="none" stroke-width="1" fill="none" fill-rule="evenodd">
        <g id="fb-copy" transform="translate(16.000000, 1.000000)" fill="#000000" fill-opacity="0.26">
            <g id="row-copy-4">
                <circle id="Oval" cx="20" cy="20" r="20"></circle>
            </g>
        </g>
        <path d="M36,37 C44.8365564,37 52,29.8365564 52,21 C52,12.1634436 44.8365564,5 36,5 C27.1634436,5 20,12.1634436 20,21 C20,29.8365564 27.1634436,37 36,37 L36,37 Z M36,35 C43.7319869,35 50,28.7319869 50,21 C50,13.2680131 43.7319869,7 36,7 C28.2680131,7 22,13.2680131 22,21 C22,28.7319869 28.2680131,35 36,35 L36,35 Z M36.6546944,28 L36.6546944,20.9991804 L38.7255649,20.9991804 L39,18.5866591 L36.6546944,18.5866591 L36.6582127,17.379169 C36.6582127,16.7499463 36.7222769,16.4127944 37.6907161,16.4127944 L38.98534,16.4127944 L38.98534,14 L36.9141762,14 C34.4263754,14 33.5507341,15.1703324 33.5507341,17.1384633 L33.5507341,18.5869324 L32,18.5869324 L32,20.9994536 L33.5507341,20.9994536 L33.5507341,28 L36.6546944,28 L36.6546944,28 Z" id="Oval-1" fill="#FFFFFF"></path>
    </g>
</svg>