<?xml version="1.0" encoding="utf-8"?>
<!-- Generator: Adobe Illustrator 19.1.0, SVG Export Plug-In . SVG Version: 6.00 Build 0)  -->
<svg version="1.1" baseProfile="tiny" id="Layer_1" xmlns="http://www.w3.org/2000/svg" xmlns:xlink="http://www.w3.org/1999/xlink"
	 x="0px" y="0px" viewBox="-240 332 130 130" xml:space="preserve">
<g>
	<path fill="#000000" d="M-175,334.6c-34.5,0-62.4,27.9-62.4,62.4s27.9,62.4,62.4,62.4s62.4-27.9,62.4-62.4S-140.5,334.6-175,334.6z
		 M-172.8,381.6c0,5.8-3.3,8.6-6.6,11.2c-1,1-2.2,2.1-2.2,3.9s1.2,2.7,2.1,3.4l2.8,2.2c3.5,2.9,6.6,5.6,6.6,11
		c0,7.4-7.2,14.9-20.8,14.9c-11.5,0-17-5.5-17-11.3c0-2.8,1.4-6.9,6.1-9.6c4.9-3,11.5-3.4,15.1-3.6c-1.1-1.4-2.4-2.9-2.4-5.4
		c0-1.4,0.4-2.1,0.8-3.1c-0.9,0.1-1.7,0.2-2.5,0.2c-8.4,0-13.1-6.2-13.1-12.4c0-3.6,1.6-7.6,5.1-10.6c4.5-3.7,9.9-4.4,14.1-4.4h16.3
		l-5,2.8l-4.9,0C-176.6,372.4-172.8,375.6-172.8,381.6z M-138.2,382.7h-12v12h-3v-12h-12v-3h12v-12h3v12h12V382.7z"/>
	<path fill="#000000" d="M-185.8,405.9c-0.7,0-5,0.2-8.3,1.3c-1.7,0.6-6.8,2.5-6.8,8.1c0,5.6,5.5,9.6,13.9,9.6
		c7.6,0,11.6-3.6,11.6-8.5c0-4-2.6-6.2-8.6-10.4C-184.6,405.9-185,405.9-185.8,405.9z"/>
	<path fill="#000000" d="M-189.7,370.7c-2.1,0-4.3,1-5.5,2.6c-1.3,1.7-1.7,3.8-1.7,5.8c0,5.3,3.1,14,9.9,14c2,0,4.1-0.9,5.4-2.2
		c1.8-1.8,2-4.4,2-5.8C-179.7,379.5-183.1,370.7-189.7,370.7z"/>
</g>
<g>
	<path fill="#FFFFFF" d="M-178.4,371.1c1.8,1.5,5.6,4.6,5.6,10.7c0,5.8-3.3,8.6-6.6,11.2c-1,1-2.2,2.1-2.2,3.9s1.2,2.7,2.1,3.4
		l2.8,2.2c3.5,2.9,6.6,5.6,6.6,11c0,7.4-7.2,14.9-20.8,14.9c-11.5,0-17-5.5-17-11.3c0-2.8,1.4-6.9,6.1-9.6c4.9-3,11.5-3.4,15.1-3.6
		c-1.1-1.4-2.4-2.9-2.4-5.4c0-1.4,0.4-2.1,0.8-3.1c-0.9,0.1-1.7,0.2-2.5,0.2c-8.4,0-13.1-6.2-13.1-12.4c0-3.6,1.6-7.6,5.1-10.6
		c4.5-3.7,9.9-4.4,14.1-4.4h16.3l-5,2.8C-173.5,371-178.4,371.1-178.4,371.1z M-184,406.1c-0.6-0.1-1-0.1-1.8-0.1
		c-0.7,0-5,0.2-8.3,1.3c-1.7,0.6-6.8,2.5-6.8,8.1c0,5.6,5.5,9.6,13.9,9.6c7.6,0,11.6-3.6,11.6-8.5C-175.4,412.5-178,410.3-184,406.1
		 M-181.7,391.1c1.8-1.8,2-4.4,2-5.8c0-5.7-3.4-14.5-9.9-14.5c-2.1,0-4.3,1-5.5,2.6c-1.3,1.7-1.7,3.8-1.7,5.8c0,5.3,3.1,14,9.9,14
		C-185.1,393.3-182.9,392.4-181.7,391.1"/>
	<path fill="#FFFFFF" d="M-138.2,379.9h-12v-12h-3v12h-12v3h12v12h3v-12h12V379.9z"/>
</g>
</svg>
