<?xml version="1.0" encoding="UTF-8" standalone="no"?>
<svg width="72px" height="56px" viewBox="0 0 72 56" version="1.1" xmlns="http://www.w3.org/2000/svg" xmlns:xlink="http://www.w3.org/1999/xlink">
    <!-- Generator: Sketch 3.8.3 (29802) - http://www.bohemiancoding.com/sketch -->
    <title>socialTw</title>
    <desc>Created with Sketch.</desc>
    <defs></defs>
    <g id="new" stroke="none" stroke-width="1" fill="none" fill-rule="evenodd">
        <g id="twitter" transform="translate(24.000000, 16.000000)" fill="#FFFFFF">
            <path d="M12.0004873,0 C5.37280702,0 0,5.37378168 0,12.0004873 C0,18.6281676 5.37280702,24 12.0004873,24 C18.6281676,24 24,18.6281676 24,12.0004873 C24,5.37378168 18.6276803,0 12.0004873,0 L12.0004873,0 Z M18.0453216,9.58089669 C18.0516569,9.71052632 18.0540936,9.84064327 18.0540936,9.97222222 C18.0540936,13.9688109 15.0121832,18.5765107 9.44980507,18.5765107 C7.74220273,18.5765107 6.15204678,18.0760234 4.81384016,17.2183236 C5.05068226,17.2461014 5.29093567,17.2602339 5.53508772,17.2602339 C6.95224172,17.2602339 8.25633528,16.7768031 9.29093567,15.9658869 C7.96783626,15.9410331 6.85136452,15.0662768 6.46637427,13.8650097 C6.6505848,13.9010721 6.84015595,13.9191033 7.03508772,13.9191033 C7.31091618,13.9191033 7.57797271,13.8830409 7.83187135,13.8133528 C6.44785575,13.535575 5.40545809,12.3123782 5.40545809,10.8484405 C5.40545809,10.8352827 5.40545809,10.8226121 5.40594542,10.8094542 C5.81335283,11.0360624 6.2797271,11.1720273 6.77582846,11.1881092 C5.96393762,10.6447368 5.43031189,9.7202729 5.43031189,8.6705653 C5.43031189,8.11647173 5.5794347,7.59649123 5.83966862,7.15009747 C7.33138402,8.97953216 9.55994152,10.1837232 12.0735867,10.3094542 C12.0219298,10.088694 11.9951267,9.85721248 11.9951267,9.62037037 C11.9951267,7.95077973 13.3489279,6.59649123 15.0194932,6.59649123 C15.8893762,6.59649123 16.6749513,6.96393762 17.2266082,7.55116959 C17.915692,7.41617934 18.5628655,7.16374269 19.1471735,6.81725146 C18.9205653,7.52387914 18.4415205,8.11647173 17.8167641,8.49025341 C18.4293372,8.417154 19.0121832,8.25438596 19.5540936,8.01413255 C19.1496101,8.62183236 18.6364522,9.15448343 18.0453216,9.58089669 L18.0453216,9.58089669 Z" id="Shape"></path>
        </g>
    </g>
</svg>