<?xml version="1.0" encoding="UTF-8" standalone="no"?>
<svg width="72px" height="56px" viewBox="0 0 72 56" version="1.1" xmlns="http://www.w3.org/2000/svg" xmlns:xlink="http://www.w3.org/1999/xlink">
    <!-- Generator: Sketch 3.8.3 (29802) - http://www.bohemiancoding.com/sketch -->
    <title>socialTw_hover</title>
    <desc>Created with Sketch.</desc>
    <defs></defs>
    <g id="new" stroke="none" stroke-width="1" fill="none" fill-rule="evenodd">
        <g id="row-copy-4" transform="translate(16.000000, 8.000000)" fill-opacity="0.26" fill="#000000">
            <circle id="Oval" cx="20" cy="20" r="20"></circle>
        </g>
        <path d="M48.5925134,21.553091 C47.6884466,21.9549539 46.715489,22.2260242 45.6946074,22.3473319 C46.736955,21.7233211 47.536188,20.7348881 47.9130905,19.5557574 C46.9381361,20.1343401 45.8588471,20.5541746 44.7091696,20.7808153 C43.7891282,19.8003696 42.4777072,19.1873414 41.0265078,19.1873414 C38.2404246,19.1873414 35.9815057,21.4462603 35.9815057,24.2328428 C35.9815057,24.6277168 36.0259352,25.0126066 36.1122983,25.3825202 C31.9189461,25.1718541 28.2008404,23.1635379 25.7122855,20.1108773 C25.277974,20.8556966 25.0293681,21.7223227 25.0293681,22.6478554 C25.0293681,24.3980808 25.9199563,25.9426322 27.27381,26.8471982 C26.4471206,26.8207401 25.6688544,26.5936002 24.988433,26.2156993 C24.9879338,26.2366661 24.9879338,26.2581321 24.9879338,26.279598 C24.9879338,28.7237233 26.7271766,30.7624913 29.0355172,31.2267553 C28.6121883,31.3415732 28.166395,31.4034751 27.7061247,31.4034751 C27.3806407,31.4034751 27.0646416,31.372025 26.7566299,31.3126191 C27.3991114,33.3169417 29.2621579,34.7761284 31.4696583,34.8165643 C29.7428958,36.1699188 27.5678439,36.9766399 25.2035919,36.9766399 C24.7967369,36.9766399 24.394874,36.9526779 24,36.9057523 C26.2334593,38.3379818 28.8852554,39.1726586 31.7342389,39.1726586 C41.015026,39.1726586 46.0894814,31.4848461 46.0894814,24.817416 C46.0894814,24.5987627 46.0849886,24.3806085 46.0755036,24.163952 C47.0609414,23.4540773 47.9165849,22.5649868 48.5925134,21.553091 L48.5925134,21.553091 Z" id="Shape" fill="#FFFFFF"></path>
    </g>
</svg>