<?xml version='1.0' encoding='UTF-8' standalone='no'?>
<svg xmlns="http://www.w3.org/2000/svg" version="1.1" xmlns:xlink="http://www.w3.org/1999/xlink" viewBox="0 0 72 56" width="72px" height="56px">
 <!-- Generator: Sketch 3.8.3 (29802) - http://www.bohemiancoding.com/sketch -->
 <title>zoom_out_hover</title>
 <desc>Created with Sketch.</desc>
 <defs/>
 <g stroke-width="1" fill="none" stroke="none" fill-rule="evenodd" id="new">
  <g id="zoom_out_hover-copy" transform="translate(16.000000, 8.000000)">
   <g fill="#000000" fill-opacity="0.26" id="row-copy-2">
    <circle cx="20" cy="20" r="20" id="Oval"/>
   </g>
   <g fill="#ffffff" fill-opacity="1" id="remove-circle-outline" transform="translate(8.000000, 8.000000)">
    <path d="M6,10.8 L6,13.2 L18,13.2 L18,10.8 L6,10.8 L6,10.8 Z M12,0 C5.4,0 0,5.4 0,12 C0,18.6 5.4,24 12,24 C18.6,24 24,18.6 24,12 C24,5.4 18.6,0 12,0 L12,0 Z M12,21.6 C6.72,21.6 2.4,17.28 2.4,12 C2.4,6.72 6.72,2.4 12,2.4 C17.28,2.4 21.6,6.72 21.6,12 C21.6,17.28 17.28,21.6 12,21.6 L12,21.6 Z" id="Shape"/>
   </g>
  </g>
 </g>
</svg>
